<svg width="49" height="25" viewBox="0 0 49 25" fill="none" xmlns="http://www.w3.org/2000/svg">
<path d="M47.0859 14.5161H6.55015L13.2651 21.5548C14.0143 22.3403 14.0172 23.6168 13.2715 24.4061C12.5257 25.1954 11.3138 25.1983 10.5645 24.4129L0.563153 13.929C0.562483 13.9284 0.562005 13.9277 0.56143 13.9271C-0.185915 13.1416 -0.188307 11.861 0.561239 11.0729C0.561909 11.0723 0.562387 11.0716 0.562962 11.071L10.5643 0.58709C11.3135 -0.198193 12.5255 -0.195471 13.2713 0.593945C14.017 1.38316 14.0141 2.65967 13.2649 3.44516L6.55015 10.4839H47.0859C48.1431 10.4839 49 11.3865 49 12.5C49 13.6135 48.1431 14.5161 47.0859 14.5161Z" fill="white"/>
</svg>
