<svg width="72" height="72" viewBox="0 0 72 72" fill="none" xmlns="http://www.w3.org/2000/svg">
<path fill-rule="evenodd" clip-rule="evenodd" d="M36.2802 0C55.9326 0 71.9988 15.9227 71.9988 35.7186C71.9988 55.3709 56.076 71.4371 36.2802 71.4371C16.6278 71.4371 0.561646 55.5144 0.561646 35.7186C0.561646 16.0662 16.4844 0 36.2802 0Z" fill="#E31E24"/>
<path fill-rule="evenodd" clip-rule="evenodd" d="M36.28 5.8811C52.7765 5.8811 65.9738 19.2218 65.9738 35.5748C65.9738 52.0714 52.6331 65.2686 36.28 65.2686C19.7835 65.2686 6.58627 51.9279 6.58627 35.5748C6.58627 19.0783 19.9269 5.8811 36.28 5.8811Z" fill="#1F1B20"/>
<path d="M16.6278 30.4104H21.792V27.1111H23.2264V35.1442H21.792V31.8449H16.6278V35.1442H15.1934V27.1111H16.6278V30.4104ZM32.1202 35.1442H30.6857V33.1359H25.5216V35.1442H24.0871V31.1277C24.0871 30.5539 24.2306 29.9801 24.374 29.5497C24.5175 29.1194 24.8044 28.6891 25.2347 28.2587C25.5216 27.9718 25.952 27.6849 26.5258 27.398C26.9561 27.2546 27.5299 27.1111 28.1037 27.1111H31.403C31.5464 27.1111 31.5464 27.1111 31.6899 27.1111C31.8333 27.1111 31.8333 27.2546 31.9768 27.2546C31.9768 27.2546 32.1202 27.398 32.1202 27.5415C32.1202 27.6849 32.1202 27.6849 32.1202 27.8284V35.1442ZM25.5216 31.7015H30.6857V28.5456H28.1037C28.1037 28.5456 27.9602 28.5456 27.8168 28.5456C27.6733 28.5456 27.5299 28.5456 27.3864 28.6891C27.243 28.6891 26.9561 28.8325 26.8127 28.976C26.6692 29.1194 26.3823 29.2629 26.2389 29.4063C26.0954 29.5497 25.952 29.8366 25.8085 30.1235C25.6651 30.4104 25.6651 30.6973 25.6651 31.1277V31.7015H25.5216ZM40.7271 32.7056C40.7271 32.9925 40.7271 33.2794 40.5837 33.4228C40.4402 33.7097 40.4402 33.8532 40.2968 33.9966C40.1533 34.1401 40.0099 34.2835 39.8664 34.427C39.723 34.5704 39.5795 34.7139 39.4361 34.7139C39.2926 34.8573 39.1492 34.8573 38.8623 34.8573C38.7188 34.8573 38.5754 34.8573 38.4319 34.8573H32.8375V33.4228H38.4319C38.7188 33.4228 38.8623 33.2794 39.1492 33.1359C39.2926 32.9925 39.4361 32.7056 39.4361 32.4187C39.4361 32.2753 39.4361 32.1318 39.4361 31.9884C39.4361 31.8449 39.2926 31.8449 39.2926 31.7015C39.1492 31.558 39.1492 31.558 39.0057 31.558C38.8623 31.558 38.7188 31.558 38.5754 31.558H35.2761C34.9892 31.558 34.8457 31.558 34.5588 31.4146C34.2719 31.2711 33.9851 31.1277 33.8416 30.9842C33.5547 30.8408 33.4113 30.5539 33.2678 30.267C33.1244 29.9801 32.9809 29.5497 32.9809 29.1194C32.9809 28.6891 33.1244 28.2587 33.2678 27.9718C33.4113 27.6849 33.5547 27.398 33.8416 27.2546C34.1285 27.1111 34.2719 26.9677 34.5588 26.8242C34.8457 26.6808 35.1326 26.6808 35.2761 26.6808H40.2968V28.1153H35.2761C34.9892 28.1153 34.8457 28.2587 34.7023 28.4022C34.5588 28.5456 34.4154 28.8325 34.4154 29.1194C34.4154 29.4063 34.5588 29.5497 34.7023 29.8366C34.8457 29.9801 35.1326 30.1235 35.2761 30.1235H38.5754C38.7188 30.1235 38.8623 30.1235 39.0057 30.1235C39.1492 30.1235 39.2926 30.267 39.5795 30.267C39.723 30.4104 39.8664 30.4104 40.0099 30.5539C40.1533 30.6973 40.2968 30.8408 40.4402 30.9842C40.5837 31.1277 40.7271 31.4146 40.7271 31.558C40.7271 31.8449 40.8706 31.9884 40.8706 32.2753L40.7271 32.7056ZM48.9036 32.7056C48.9036 32.9925 48.9036 33.2794 48.7602 33.4228C48.6168 33.7097 48.6168 33.8532 48.4733 33.9966C48.3299 34.1401 48.1864 34.2835 48.043 34.427C47.8995 34.5704 47.7561 34.7139 47.6126 34.7139C47.4692 34.8573 47.3257 34.8573 47.0388 34.8573C46.8954 34.8573 46.7519 34.8573 46.6085 34.8573H41.014V33.4228H46.6085C46.8954 33.4228 47.0388 33.2794 47.3257 33.1359C47.4692 32.9925 47.6126 32.7056 47.6126 32.4187C47.6126 32.2753 47.6126 32.1318 47.6126 31.9884C47.6126 31.8449 47.4692 31.8449 47.4692 31.7015C47.3257 31.558 47.3257 31.558 47.1823 31.558C47.0388 31.558 46.8954 31.558 46.7519 31.558H43.4526C43.1657 31.558 43.0223 31.558 42.7354 31.4146C42.4485 31.2711 42.1616 31.1277 42.0181 30.9842C41.7312 30.8408 41.5878 30.5539 41.4443 30.267C41.3009 29.9801 41.1575 29.5497 41.1575 29.1194C41.1575 28.6891 41.3009 28.2587 41.4443 27.9718C41.5878 27.6849 41.7312 27.398 42.0181 27.2546C42.305 27.1111 42.4485 26.9677 42.7354 26.8242C43.0223 26.6808 43.3092 26.6808 43.4526 26.6808H48.4733V28.1153H43.4526C43.1657 28.1153 43.0223 28.2587 42.8788 28.4022C42.7354 28.5456 42.5919 28.8325 42.5919 29.1194C42.5919 29.4063 42.7354 29.5497 42.8788 29.8366C43.0223 29.9801 43.3092 30.1235 43.4526 30.1235H46.7519C46.8954 30.1235 47.0388 30.1235 47.1823 30.1235C47.3257 30.1235 47.4692 30.267 47.7561 30.267C47.8995 30.4104 48.043 30.4104 48.1864 30.5539C48.3299 30.6973 48.4733 30.8408 48.6168 30.9842C48.7602 31.1277 48.9036 31.4146 48.9036 31.558C48.9036 31.8449 49.0471 31.9884 49.0471 32.2753L48.9036 32.7056ZM57.3671 30.4104C57.3671 30.6973 57.3671 30.9842 57.2236 31.2711C57.0802 31.558 57.0802 31.7015 56.9367 31.9884C56.7933 32.1318 56.6498 32.4187 56.5064 32.5622C56.3629 32.7056 56.076 32.8491 55.9326 32.8491C55.7892 32.9925 55.5023 32.9925 55.3588 32.9925C55.2154 32.9925 54.9285 32.9925 54.785 32.9925H51.4857V31.558H54.785C54.9285 31.558 55.0719 31.558 55.3588 31.4146C55.5023 31.4146 55.6457 31.2711 55.7892 31.1277C55.9326 30.9842 55.9326 30.8408 56.076 30.6973C56.076 30.5539 56.2195 30.4104 56.2195 30.267V29.5497C56.2195 29.4063 56.2195 29.2629 56.076 28.976C56.076 28.8325 55.9326 28.6891 55.7892 28.5456C55.6457 28.4022 55.5023 28.4022 55.3588 28.2587C55.2154 28.2587 55.0719 28.1153 54.785 28.1153H51.4857C51.3423 28.1153 51.1988 28.1153 51.0554 28.2587C50.9119 28.4022 50.9119 28.5456 50.9119 28.6891V34.7139H49.4774V28.6891C49.4774 28.2587 49.4774 27.9718 49.6209 27.6849C49.7643 27.398 49.9078 27.2546 50.1947 27.1111C50.3381 26.9677 50.625 26.8242 50.9119 26.8242C51.1988 26.6808 51.3423 26.6808 51.6292 26.6808H54.9285C55.2154 26.6808 55.5023 26.6808 55.7892 26.8242C56.076 26.9677 56.2195 26.9677 56.5064 27.1111C56.6498 27.2546 56.9367 27.398 57.0802 27.5415C57.2236 27.6849 57.3671 27.9718 57.3671 28.1153C57.5105 28.2587 57.5105 28.5456 57.5105 28.6891C57.5105 28.8325 57.5105 29.1194 57.5105 29.2629V29.9801L57.3671 30.4104Z" fill="#FEFEFE"/>
<path d="M20.0706 42.4606H16.4844C16.3409 42.4606 16.3409 42.4606 16.1975 42.4606C16.054 42.4606 16.054 42.4606 15.9106 42.3171C15.7672 42.3171 15.7672 42.1737 15.6237 42.1737C15.4803 42.0302 15.4803 42.0302 15.3368 41.8868C15.1934 41.7433 15.1934 41.5999 15.1934 41.4564C15.1934 41.313 15.1934 41.1695 15.1934 41.0261V38.3006C15.1934 38.1571 15.1934 38.1571 15.1934 38.0137C15.1934 37.8702 15.1934 37.8702 15.3368 37.7268C15.3368 37.5833 15.4803 37.5833 15.4803 37.4399C15.6237 37.2964 15.6237 37.2964 15.7672 37.153C15.9106 37.0095 16.054 37.0095 16.1975 37.0095C16.3409 37.0095 16.4844 37.0095 16.6278 37.0095H20.214V38.0137H16.6278C16.4844 38.0137 16.3409 38.0137 16.3409 38.1571C16.3409 38.1571 16.1975 38.3006 16.1975 38.444V41.1695C16.1975 41.313 16.1975 41.4564 16.3409 41.4564C16.3409 41.4564 16.4844 41.5999 16.6278 41.5999H20.214V42.604L20.0706 42.4606ZM25.0913 40.1654H21.9354V39.1613H25.0913V40.1654ZM25.5216 42.4606H21.9354C21.792 42.4606 21.6485 42.4606 21.5051 42.3171C21.3616 42.3171 21.2182 42.1737 21.0747 42.0302C20.9313 41.8868 20.7878 41.7433 20.7878 41.5999C20.6444 41.4564 20.6444 41.1695 20.6444 40.8826V37.2964V37.153C20.6444 37.153 20.6444 37.0095 20.7878 37.0095L20.9313 36.8661H21.0747H25.6651V37.8702H21.6485V41.0261C21.6485 41.1695 21.6485 41.313 21.792 41.313C21.792 41.313 21.9354 41.4564 22.0789 41.4564H25.6651V42.4606H25.5216ZM31.5464 38.7309C31.5464 39.0178 31.5464 39.1613 31.403 39.3047C31.403 39.4482 31.2595 39.5916 31.1161 39.7351C30.9726 39.8785 30.9726 40.0219 30.8292 40.0219C30.6857 40.1654 30.5423 40.1654 30.3989 40.3088C30.2554 40.3088 30.112 40.4523 29.9685 40.4523C29.8251 40.4523 29.6816 40.4523 29.5382 40.4523L31.6899 42.3171H30.112L27.9602 40.4523H27.243V39.4482H29.5382C29.6816 39.4482 29.8251 39.4482 29.8251 39.3047C29.9685 39.3047 29.9685 39.1613 30.112 39.1613C30.2554 39.0178 30.2554 39.0178 30.2554 38.8744C30.2554 38.7309 30.2554 38.5875 30.2554 38.5875V38.0137V37.8702H26.9561V42.4606H25.952V37.4399V37.2964C25.952 37.2964 25.952 37.153 26.0954 37.153L26.2389 37.0095H26.3823H30.2554C30.5423 37.0095 30.6857 37.0095 30.8292 37.153C30.9726 37.2964 31.1161 37.2964 31.2595 37.4399C31.403 37.5833 31.403 37.7268 31.403 37.8702C31.403 38.0137 31.403 38.1571 31.403 38.3006V38.8744L31.5464 38.7309ZM36.9975 37.8702H34.8457V42.4606H33.8416V37.8702H31.5464V36.8661H36.9975V37.8702ZM38.2885 42.4606H37.2844V36.8661H38.2885V42.4606ZM43.5961 40.1654H40.4402V39.1613H43.5961V40.1654ZM44.0264 37.8702H40.0099V42.4606H39.0057V37.4399V37.2964C39.0057 37.2964 39.0057 37.153 39.1492 37.153L39.2926 37.0095H39.4361H44.0264V38.0137V37.8702ZM45.3174 42.4606H44.3133V36.8661H45.3174V42.4606ZM50.625 40.1654H47.4692V39.1613H50.625V40.1654ZM51.0554 42.4606H47.4692C47.3257 42.4606 47.1823 42.4606 47.0388 42.3171C46.8954 42.3171 46.7519 42.1737 46.6085 42.0302C46.465 41.8868 46.3216 41.7433 46.3216 41.5999C46.1781 41.4564 46.1781 41.1695 46.1781 40.8826V37.2964V37.153C46.1781 37.153 46.1781 37.0095 46.3216 37.0095L46.465 36.8661H46.6085H51.1988V37.8702H47.1823V41.0261C47.1823 41.1695 47.1823 41.313 47.3257 41.313C47.3257 41.313 47.4692 41.4564 47.6126 41.4564H51.1988V42.4606H51.0554ZM57.0802 40.1654C57.0802 40.4523 57.0802 40.8826 56.9367 41.1695C56.7933 41.4564 56.6498 41.7433 56.5064 41.8868C56.3629 42.0302 56.076 42.3171 55.7892 42.3171C55.5023 42.4606 55.2154 42.4606 54.9285 42.4606H52.203H52.0595C52.0595 42.4606 51.9161 42.4606 51.9161 42.3171L51.7726 42.1737V42.0302V37.4399V37.2964C51.7726 37.2964 51.7726 37.153 51.9161 37.153L52.0595 37.0095H52.203H54.9285C55.2154 37.0095 55.5023 37.0095 55.7892 37.153C56.076 37.2964 56.3629 37.4399 56.5064 37.5833C56.6498 37.7268 56.9367 38.0137 56.9367 38.3006C57.0802 38.5875 57.0802 38.8744 57.0802 39.3047V40.1654ZM56.076 39.3047C56.076 39.1613 56.076 38.8744 55.9326 38.7309C55.9326 38.5875 55.7892 38.444 55.6457 38.3006C55.5023 38.1571 55.3588 38.1571 55.2154 38.0137C55.0719 38.0137 54.9285 37.8702 54.6416 37.8702H52.4898V41.4564H54.6416C54.785 41.4564 55.0719 41.4564 55.2154 41.313C55.3588 41.313 55.5023 41.1695 55.6457 41.0261C55.7892 40.8826 55.7892 40.7392 55.9326 40.5957C55.9326 40.4523 56.076 40.3088 56.076 40.0219V39.1613V39.3047Z" fill="#E31E24"/>
<path d="M30.3989 47.9115L34.9892 52.6453L42.1616 45.3295L40.8706 44.1819L34.9892 50.0633L31.6899 46.6205L30.3989 47.9115Z" fill="#E31E24"/>
</svg>
