<svg width="73" height="72" viewBox="0 0 73 72" fill="none" xmlns="http://www.w3.org/2000/svg">
<path fill-rule="evenodd" clip-rule="evenodd" d="M36.5714 0.785156C56.1948 0.785156 72.1476 16.738 72.1476 36.3614C72.1476 55.9848 56.1948 71.9377 36.5714 71.9377C16.948 71.9377 0.995117 55.9848 0.995117 36.3614C0.995117 16.738 16.948 0.785156 36.5714 0.785156Z" fill="#FEFEFE"/>
<path d="M29.2305 62.62C29.6541 62.4788 30.2188 62.4788 30.7835 62.62C31.4894 62.7612 32.0541 63.1847 32.4776 63.7494C32.9011 64.3141 32.9011 65.02 32.7599 65.867C32.6188 66.7141 32.1952 67.4199 31.6305 67.8435C31.0658 68.267 30.36 68.4082 29.5129 68.267C28.9482 68.1258 28.5247 67.9846 28.2423 67.8435L28.3835 67.1376C28.6658 67.4199 29.0894 67.5611 29.6541 67.7023C30.2188 67.8435 30.7835 67.7023 31.207 67.4199C31.6305 67.1376 31.9129 66.5729 32.0541 65.867C32.1952 65.1611 32.0541 64.5964 31.7717 64.1729C31.4894 63.7494 31.0658 63.467 30.5011 63.3258C29.9364 63.1847 29.5129 63.3259 29.0894 63.467L29.2305 62.9023V62.62ZM25.2776 60.7847L27.96 61.7729L25.9835 66.8552L23.4423 65.867L23.5835 65.3023L25.56 66.0082L26.2659 64.3141L24.4306 63.6082L24.5718 63.0435L26.407 63.7494L27.1129 61.9141L24.9953 61.067L25.1365 60.5023L25.2776 60.7847ZM20.76 58.1024L21.4659 58.5259V60.3612C21.4659 60.5023 21.4659 60.6435 21.4659 60.7847C21.4659 60.9259 21.4659 61.067 21.6071 61.067C21.6071 61.2082 21.7482 61.2082 21.7482 61.3494C21.7482 61.4906 21.8894 61.4906 22.0306 61.4906L22.4541 61.7729L23.5835 59.7965L24.1482 60.0788L21.3247 64.7376L19.913 63.8905C19.7718 63.7494 19.4894 63.6082 19.3483 63.467C19.2071 63.3259 19.0659 63.1847 19.0659 62.9023C19.0659 62.7612 18.9247 62.4788 18.9247 62.3376C18.9247 62.1964 19.0659 61.9141 19.2071 61.7729C19.3483 61.6317 19.3483 61.4906 19.4894 61.3494C19.6306 61.2082 19.7718 61.2082 19.913 61.067C20.0541 61.067 20.1953 60.9259 20.3365 60.9259C20.4777 60.9259 20.6188 60.9259 20.9012 61.067C20.9012 60.9259 20.76 60.9259 20.76 60.7847C20.76 60.6435 20.76 60.6435 20.6188 60.5023C20.6188 60.3612 20.6188 60.3612 20.6188 60.22C20.6188 60.0788 20.6188 59.9376 20.6188 59.7965V57.82L20.76 58.1024ZM21.1835 64.0317L22.1718 62.3376L21.4659 61.9141C21.3247 61.7729 21.1835 61.7729 21.0424 61.7729C20.9012 61.7729 20.76 61.7729 20.6188 61.7729C20.4777 61.7729 20.3365 61.9141 20.1953 61.9141C20.0541 62.0553 19.913 62.0553 19.913 62.1964C19.7718 62.4788 19.7718 62.7612 19.7718 62.9023C19.913 63.1847 20.0541 63.3259 20.3365 63.467L21.0424 63.8905L21.1835 64.0317ZM14.5483 59.2318L15.6777 60.22L18.9247 56.5494L19.3483 56.9729L16.1012 60.6435L17.2306 61.6317L16.8071 62.0553L13.9836 59.5141L14.4071 59.0906L14.5483 59.2318ZM16.6659 54.1494L17.0894 54.573L13.1365 58.3847L12.713 57.9612L16.6659 54.1494ZM9.88949 53.5847L11.1601 55.2788L12.713 54.1494L11.5836 52.5965L12.0071 52.3142L13.1365 53.8671L15.113 52.4553L15.5365 53.02L11.1601 56.2671L9.46597 54.0083L9.88949 53.7259V53.5847ZM12.9954 48.9259L13.2777 49.4906L8.61891 52.3142L8.33656 51.7495L12.9954 48.9259ZM11.1601 44.6907L12.1483 47.373L7.06598 49.3495L6.07775 46.8083L6.64245 46.6671L7.34833 48.6436L9.04244 47.9377L8.33656 46.1024L8.90126 45.9613L9.60714 47.7965L11.4424 47.0907L10.5954 44.973L11.1601 44.8318V44.6907ZM10.7365 43.4201L5.37187 44.4083L5.08952 42.8554C4.666 41.0201 5.37187 39.8907 7.20716 39.4672C8.05421 39.326 8.76009 39.4672 9.32479 39.8907C9.88949 40.3142 10.313 41.0201 10.4542 41.8672L10.7365 43.2789V43.4201ZM5.7954 43.7024L10.0307 42.8554L9.88949 42.0083C9.74832 41.3025 9.46597 40.7378 9.04244 40.4554C8.61891 40.1731 8.05421 40.0319 7.34833 40.1731C5.93658 40.4554 5.37187 41.3025 5.65423 42.7142L5.7954 43.5613V43.7024ZM10.313 32.5496C10.1718 33.2555 9.88949 33.9613 9.32479 34.2437C8.76009 34.6672 8.05421 34.8084 7.20716 34.6672C6.3601 34.526 5.65423 34.2437 5.2307 33.679C4.80717 33.1143 4.52482 32.4084 4.666 31.7025C4.80717 30.9966 5.08952 30.4319 5.65423 30.0084C6.21893 29.5849 6.92481 29.4437 7.77186 29.5849C8.61891 29.7261 9.32479 30.0084 9.74832 30.5731C9.88949 30.7143 9.88949 30.8555 10.0307 30.9966L11.3012 29.5849L11.1601 30.7143L10.313 31.7025C10.313 31.9849 10.313 32.2672 10.313 32.5496ZM5.2307 31.8437C5.2307 32.4084 5.37187 32.8319 5.65423 33.2554C6.07775 33.679 6.50128 33.9613 7.20716 33.9613C7.91303 34.1025 8.47774 33.9613 8.90126 33.679C9.32479 33.3966 9.60714 32.9731 9.60714 32.4084C9.74832 31.8437 9.60714 31.279 9.18362 30.9966C8.90126 30.5731 8.33656 30.4319 7.63068 30.2908C6.92481 30.1496 6.3601 30.2908 5.93658 30.5731C5.51305 30.8555 5.2307 31.279 5.2307 31.8437ZM10.313 24.079C11.7248 24.6437 12.2895 25.4908 11.7248 26.9025C11.3012 28.1731 10.313 28.4555 8.90126 28.032L5.7954 26.9025L6.07775 26.3378L9.18362 27.4673C10.1718 27.8908 10.8777 27.6084 11.3012 26.7614C11.5836 25.9143 11.3012 25.3496 10.313 24.9261L7.20716 23.7967L7.48951 23.232L10.5954 24.3614L10.313 24.079ZM15.2542 19.9849L14.8306 20.5496L13.2777 20.1261L12.0071 22.1026L12.9954 23.3732L12.5718 23.9379L9.18362 19.1379L9.60714 18.5732L15.3953 19.8438L15.2542 19.9849ZM12.713 20.1261L10.313 19.5614C10.1718 19.5614 10.1718 19.5614 10.0307 19.4202C10.1718 19.5614 10.1718 19.5614 10.313 19.7026L11.866 21.6791L12.8542 20.1261H12.713ZM17.7953 17.1614L15.96 19.2791L11.866 15.7497L12.2895 15.3262L15.96 18.5732L17.3718 16.8791L17.7953 17.3026V17.1614ZM19.2071 16.032L18.7836 16.4556L15.2542 12.3615L15.6777 11.9379L19.2071 16.032ZM20.1953 9.11442L18.9247 10.1027L21.8894 14.0556L21.3247 14.4791L18.36 10.5262L17.0894 11.5144L16.8071 11.0909L19.913 8.83207L20.1953 9.2556V9.11442ZM25.2776 6.14974L24.9953 9.96148L25.8423 11.7968L25.2776 12.0791L24.4306 10.2438L21.4659 7.84385L22.1718 7.56149L24.2894 9.39678C24.2894 9.39678 24.4306 9.53795 24.5718 9.67913C24.5718 9.53795 24.5718 9.53795 24.5718 9.2556L24.7129 6.43209L25.2776 6.14974ZM36.9952 9.53795H36.2893L36.1482 5.86739C36.1482 5.58504 36.1482 5.16151 36.1482 4.73798C36.1482 5.02033 36.007 5.16151 36.007 5.30268L34.3129 9.53795H34.0305L31.9129 5.44386C31.9129 5.30268 31.7717 5.16151 31.7717 4.87916C31.7717 5.16151 31.7717 5.44386 31.9129 6.00856L32.0541 9.67913H31.4894L31.207 4.17328H32.0541L33.8893 7.84385C34.0305 8.1262 34.1717 8.40855 34.1717 8.54972C34.3129 8.26737 34.3129 7.98502 34.454 7.84385L36.007 4.0321H36.854L37.1364 9.53795H36.9952ZM42.9246 10.1027L42.2187 9.96148L41.7952 8.40855L39.5364 8.1262L38.8305 9.53795L38.1246 9.39678L40.8069 4.17328L41.5128 4.31446L42.9246 9.96148V10.1027ZM41.654 7.84385L41.0893 5.44386C41.0893 5.30268 41.0893 5.30268 41.0893 5.02033C41.0893 5.16151 40.9481 5.30268 40.9481 5.30268L39.8187 7.56149L41.654 7.84385ZM48.1481 11.9379L47.4422 11.6556L46.1716 6.57326C46.1716 6.43209 46.1716 6.29091 46.1716 6.14974C46.1716 6.29091 46.0304 6.57327 45.8893 6.85562L44.6187 10.5262L44.054 10.385L45.7481 5.16151L46.5951 5.44386L47.8657 10.385C47.8657 10.5262 48.0069 10.6674 48.0069 10.8085C48.0069 10.6674 48.1481 10.385 48.2893 10.1027L49.5598 6.43209L50.1245 6.57326L48.4304 11.7968L48.1481 11.9379ZM53.0892 15.0438L52.5245 14.6203L52.948 13.0673L50.9716 11.7968L49.701 12.785L49.1363 12.3615L53.9363 8.97325L54.501 9.39678L53.2304 15.185L53.0892 15.0438ZM52.948 12.5026L53.5127 10.1027C53.5127 9.96148 53.5127 9.96148 53.6539 9.8203C53.5127 9.96148 53.5128 9.96148 53.3716 10.1027L51.3951 11.6556L52.948 12.6438V12.5026ZM57.0421 18.1497C56.4774 18.0085 55.9127 17.7261 55.348 17.3026C54.7833 16.7379 54.501 16.1732 54.501 15.4673C54.501 14.7614 54.7833 14.0556 55.348 13.4909C55.9127 12.9262 56.6186 12.5026 57.3245 12.5026C58.0304 12.5026 58.7362 12.785 59.3009 13.3497C59.7245 13.7732 60.0068 14.1967 60.148 14.6203L59.7245 15.185C59.5833 14.6203 59.3009 14.1967 58.8774 13.7732C58.4539 13.3497 57.8892 13.2085 57.3245 13.2085C56.7598 13.2085 56.1951 13.4909 55.7716 14.0556C55.348 14.6203 55.0657 15.0438 55.0657 15.6085C55.0657 16.1732 55.348 16.5967 55.7716 17.0203C56.0539 17.3026 56.4774 17.4438 56.7598 17.585L57.748 16.4556L56.901 15.6085L57.3245 15.185L58.5951 16.4556L56.901 18.2908L57.0421 18.1497ZM59.4421 21.9614L57.748 19.7026L62.1245 16.4556L63.8186 18.7144L63.395 18.9967L62.1245 17.3026L60.7127 18.432L61.8421 19.9849L61.4186 20.2673L60.2892 18.7144L58.7362 19.8438L60.148 21.6791L59.7245 21.9614H59.4421ZM62.4068 28.1731L62.1245 27.6084L65.5127 26.1967C65.795 26.0555 66.0774 25.9143 66.5009 25.7731C66.2186 25.7731 66.0774 25.7731 65.9362 25.7731H61.2774L61.1362 25.4908L64.2421 22.1026C64.3833 21.9614 64.5244 21.8202 64.6656 21.6791C64.5244 21.8202 64.1009 21.9614 63.6774 22.1026L60.2892 23.5143L60.0068 22.9496L64.948 20.6908L65.2303 21.3967L62.4068 24.5026C62.1245 24.7849 61.9833 24.9261 61.8421 24.9261C62.1245 24.9261 62.4068 24.9261 62.548 24.9261H66.7833L67.0656 25.632L62.1245 27.8908L62.4068 28.1731ZM63.395 32.6907L62.8303 29.8672L68.195 28.879L68.7597 31.5613L68.195 31.7025L67.7715 29.5849L65.9362 29.8672L66.3597 31.8437L65.795 31.9849L65.3715 30.0084L63.5362 30.2908L63.9597 32.5496L63.395 32.6907ZM63.6774 38.3378V37.4907L67.9127 34.526C68.0538 34.3849 68.195 34.3849 68.195 34.3849C68.0538 34.3849 67.7715 34.3849 67.4891 34.3849L63.5362 34.526V33.8202L69.0421 33.679V34.526L64.8068 37.3495C64.6656 37.4907 64.5244 37.4907 64.3833 37.6319C64.5244 37.6319 64.8068 37.6319 65.2303 37.6319L69.0421 37.4907V38.1966L63.5362 38.3378H63.6774ZM67.6303 44.126L67.9127 42.573L63.1127 41.726L63.2539 41.1613L68.0538 42.0083L68.3362 40.4554L68.9009 40.5966L68.195 44.2671L67.6303 44.126ZM61.7009 47.0907L62.4068 47.373C62.2656 47.373 62.1245 47.5142 62.1245 47.5142C61.9833 47.6554 61.8421 47.6554 61.8421 47.7965C61.7009 47.9377 61.7009 47.9377 61.5598 48.0789C61.4186 48.2201 61.4186 48.3612 61.4186 48.3612C61.2774 48.7848 61.1362 49.0671 61.2774 49.2083C61.2774 49.4906 61.4186 49.6318 61.7009 49.773C61.8421 49.773 61.9833 49.9142 62.1245 49.9142C62.2656 49.9142 62.4068 49.9142 62.548 49.773C62.6892 49.773 62.8303 49.6318 62.9715 49.4906C63.1127 49.3495 63.2539 49.2083 63.395 49.2083C63.5362 49.0671 63.6774 48.9259 63.9597 48.9259C64.1009 48.7848 64.2421 48.7848 64.3833 48.6436C64.5244 48.6436 64.6656 48.5024 64.8068 48.5024C64.948 48.5024 65.0891 48.5024 65.3715 48.6436C65.6539 48.7848 65.795 48.9259 65.9362 49.0671C66.0774 49.2083 66.0774 49.4906 66.2186 49.6318C66.2186 49.9142 66.2186 50.0553 66.2186 50.3377C66.2186 50.62 66.0774 50.7612 65.9362 51.0436C65.6539 51.4671 65.5127 51.8906 65.2303 52.0318L64.5244 51.7495C64.8068 51.6083 65.0891 51.1847 65.3715 50.7612C65.3715 50.62 65.5127 50.4789 65.5127 50.3377C65.5127 50.1965 65.5127 50.0553 65.5127 49.9142C65.5127 49.773 65.5127 49.6318 65.3715 49.4906C65.3715 49.3495 65.2303 49.3495 65.0891 49.2083C64.948 49.2083 64.8068 49.0671 64.6656 49.0671C64.5244 49.0671 64.3833 49.0671 64.2421 49.2083C64.1009 49.2083 63.9597 49.3495 63.8186 49.4906C63.6774 49.6318 63.5362 49.6318 63.395 49.773C63.2539 49.9142 63.1127 50.0553 62.8303 50.1965C62.6892 50.3377 62.548 50.3377 62.2656 50.4789C62.1245 50.4789 61.9833 50.62 61.7009 50.62C61.5598 50.62 61.2774 50.62 61.1362 50.4789C60.8539 50.3377 60.7127 50.1965 60.5715 50.0553C60.4304 49.9142 60.4304 49.6318 60.2892 49.4906C60.2892 49.2083 60.2892 49.0671 60.2892 48.7848C60.2892 48.5024 60.4304 48.3612 60.5715 48.0789C60.5715 47.9377 60.7127 47.9377 60.7127 47.7965C60.7127 47.6554 60.8539 47.5142 60.9951 47.5142C61.1362 47.373 61.1362 47.373 61.2774 47.2318C61.4186 47.0907 61.4186 47.0907 61.5598 47.0907H61.7009ZM61.8421 57.1141L60.0068 53.7259L58.3127 52.5965L58.7362 52.0318L60.4304 53.1612L64.2421 53.7259L63.8186 54.2906L61.1362 53.8671C61.1362 53.8671 60.9951 53.8671 60.8539 53.7259C60.8539 53.7259 60.9951 53.8671 60.9951 54.0083L62.2656 56.4082L61.8421 56.9729V57.1141ZM56.901 54.7141L57.4657 55.2788C57.3245 55.2788 57.1833 55.2788 57.0421 55.2788C56.901 55.2788 56.7598 55.42 56.6186 55.42C56.4774 55.42 56.3363 55.5612 56.1951 55.5612C56.0539 55.7024 56.0539 55.7024 55.9127 55.8435C55.6304 56.1259 55.4892 56.4082 55.4892 56.5494C55.4892 56.8318 55.4892 56.9729 55.7716 57.2553C55.9127 57.3965 56.0539 57.3965 56.0539 57.3965C56.1951 57.3965 56.3363 57.3965 56.4774 57.3965C56.6186 57.3965 56.7598 57.3965 56.901 57.2553C57.0421 57.2553 57.1833 57.1141 57.4657 57.1141C57.6068 57.1141 57.8892 56.9729 58.0304 56.9729C58.1715 56.9729 58.4539 56.9729 58.5951 56.9729C58.7362 56.9729 58.8774 56.9729 59.0186 57.1141C59.1598 57.1141 59.3009 57.2553 59.4421 57.3965C59.5833 57.5377 59.7245 57.82 59.7245 57.9612C59.7245 58.1024 59.7245 58.3847 59.7245 58.5259C59.7245 58.6671 59.5833 58.9494 59.4421 59.0906C59.3009 59.2318 59.1598 59.5141 59.0186 59.6553C58.5951 60.0788 58.3127 60.22 58.0304 60.3612L57.4657 59.7965C57.8892 59.7965 58.1715 59.5141 58.5951 59.2318C58.7362 59.0906 58.7362 59.0906 58.8774 58.9494C59.0186 58.8082 59.0186 58.6671 59.0186 58.5259C59.0186 58.3847 59.0186 58.2435 59.0186 58.1024C59.0186 57.9612 58.8774 57.82 58.8774 57.82C58.7362 57.6788 58.7362 57.6788 58.5951 57.6788C58.4539 57.6788 58.3127 57.6788 58.1715 57.6788C58.0304 57.6788 57.8892 57.6788 57.748 57.82C57.6068 57.82 57.4657 57.9612 57.1833 57.9612C57.0421 57.9612 56.7598 58.1024 56.6186 58.1024C56.4774 58.1024 56.1951 58.1024 56.0539 58.1024C55.9127 58.1024 55.6304 58.1024 55.4892 57.9612C55.348 57.9612 55.2069 57.82 55.0657 57.6788C54.9245 57.5377 54.7833 57.2553 54.6422 57.1141C54.6422 56.9729 54.6422 56.6906 54.6422 56.5494C54.6422 56.4082 54.7833 56.1259 54.9245 55.9847C55.0657 55.8435 55.2069 55.5612 55.348 55.42C55.348 55.42 55.4892 55.2788 55.6304 55.2788C55.7716 55.1377 55.7716 55.1377 55.9127 54.9965C56.0539 54.8553 56.1951 54.8553 56.1951 54.8553C56.3363 54.8553 56.3363 54.7141 56.4774 54.7141H56.901ZM53.6539 63.6082L54.9245 62.62L51.9598 58.6671L52.5245 58.2435L55.4892 62.1964L56.7598 61.2082L57.0421 61.6317L53.9363 63.8905L53.6539 63.467V63.6082ZM47.1598 61.4906L49.701 60.22L52.2422 65.02L49.8422 66.2905L49.5598 65.7258L51.3951 64.7376L50.5481 63.1847L48.854 64.0317L48.5716 63.467L50.2657 62.62L49.4187 60.9259L47.4422 61.9141L47.1598 61.3494V61.4906ZM40.5246 63.3258L41.0893 63.1847L41.9364 66.7141C41.9364 66.9964 42.0775 67.2788 42.0775 67.7023C42.0775 67.4199 42.0775 67.2788 42.0775 67.1376L42.9246 62.62H43.2069L45.8893 66.2905C46.0304 66.4317 46.0304 66.5729 46.1716 66.8552C46.1716 66.7141 46.0304 66.2905 45.8893 65.867L45.0422 62.3376L45.6069 62.1964L46.7363 67.5611L45.8893 67.7023L43.3481 64.3141C43.2069 64.0317 43.0658 63.8906 42.9246 63.7494C42.9246 64.0317 42.7834 64.3141 42.7834 64.4553L41.9364 68.5493L41.0893 68.6905L39.9599 63.3258H40.5246Z" fill="#1F1B20"/>
<path fill-rule="evenodd" clip-rule="evenodd" d="M36.5714 12.0792C49.9831 12.0792 60.8536 22.9497 60.8536 36.3614C60.8536 49.7731 49.9831 60.6436 36.5714 60.6436C23.1597 60.6436 12.2892 49.7731 12.2892 36.3614C12.2892 22.9497 23.1597 12.0792 36.5714 12.0792Z" fill="#E31E24"/>
<path d="M21.3239 38.4787H18.5004V23.2318H21.3239V38.4787ZM54.9237 32.267C54.9237 33.2552 54.7826 34.1023 54.5002 34.8082C54.2179 35.6552 53.7943 36.2199 53.2296 36.7846C52.6649 37.3493 51.959 37.7728 51.2532 38.0552C50.5473 38.3375 49.5591 38.4787 48.712 38.4787H44.9003C43.912 38.4787 43.065 38.3375 42.3591 38.0552C41.5121 37.7728 40.9473 37.3493 40.3826 36.7846C39.8179 36.2199 39.3944 35.514 39.1121 34.8082C38.8297 33.9611 38.6885 33.114 38.6885 32.267V29.3023C38.6885 28.3141 38.8297 27.467 39.1121 26.7611C39.3944 25.9141 39.8179 25.3494 40.3826 24.7847C40.9473 24.22 41.6532 23.7965 42.3591 23.5141C43.2062 23.2318 44.0532 23.0906 44.9003 23.0906H48.712C49.7002 23.0906 50.5473 23.2318 51.2532 23.5141C52.1002 23.7965 52.6649 24.22 53.2296 24.7847C53.7943 25.3494 54.2179 26.0553 54.5002 26.7611C54.7826 27.6082 54.9237 28.4553 54.9237 29.3023V32.267ZM37.9827 33.9611C37.9827 34.5258 37.9827 34.9493 37.8415 35.3729C37.7003 35.7964 37.5591 36.2199 37.2768 36.5023C36.9944 36.7846 36.7121 37.067 36.4297 37.3493C36.1474 37.6317 35.865 37.7728 35.4415 37.914C35.1591 38.0552 34.7356 38.1964 34.4533 38.1964C34.1709 38.1964 33.7474 38.3375 33.465 38.3375H22.7357V35.514H33.465C34.0297 35.514 34.4533 35.3729 34.7356 35.0905C35.018 34.8082 35.1591 34.3846 35.1591 33.8199C35.1591 33.5376 35.1591 33.3964 35.018 33.114C34.8768 32.8317 34.8768 32.6905 34.7356 32.5493C34.5944 32.4082 34.4533 32.267 34.1709 32.1258C33.8886 31.9846 33.7474 31.9846 33.465 31.9846H27.1121C26.6886 31.9846 26.1239 31.8435 25.7004 31.7023C25.1357 31.5611 24.7122 31.2788 24.2886 30.9964C23.8651 30.5729 23.4416 30.1494 23.1592 29.5847C22.8769 29.02 22.7357 28.3141 22.7357 27.467C22.7357 26.62 22.8769 25.9141 23.1592 25.3494C23.4416 24.7847 23.8651 24.3612 24.2886 23.9376C24.7122 23.5141 25.2769 23.3729 25.7004 23.0906C26.2651 22.9494 26.6886 22.8082 27.1121 22.8082H36.5709V25.6317H27.1121C26.5474 25.6317 26.1239 25.7729 25.8416 26.0553C25.5592 26.3376 25.418 26.7611 25.418 27.3258C25.418 27.8905 25.5592 28.3141 25.8416 28.5964C26.1239 28.8788 26.5474 29.02 27.1121 29.02H33.465C33.7474 29.02 34.0297 29.02 34.4533 29.1611C34.7356 29.3023 35.1591 29.3023 35.4415 29.4435C35.7239 29.5847 36.1474 29.867 36.4297 30.0082C36.7121 30.2905 36.9944 30.5729 37.2768 30.8552C37.5591 31.1376 37.7003 31.5611 37.8415 31.9846C37.9827 32.4082 37.9827 32.9729 37.9827 33.3964V33.9611Z" fill="#FEFEFE"/>
<path d="M18.3599 43.5617V42.8559C18.3599 42.7147 18.3599 42.5735 18.3599 42.2912C18.3599 42.15 18.5011 41.8676 18.5011 41.7265C18.6423 41.5853 18.6423 41.4441 18.7835 41.1618C18.9246 41.0206 19.0658 40.8794 19.207 40.7382C19.3482 40.597 19.6305 40.4559 19.7717 40.4559C20.054 40.3147 20.1952 40.3147 20.6187 40.3147H23.7246C23.8658 40.3147 24.1481 40.3147 24.4305 40.4559C24.7128 40.4559 24.854 40.597 25.1364 40.7382C25.4187 40.8794 25.5599 41.0206 25.8422 41.1618C26.1246 41.3029 26.2658 41.5853 26.4069 41.7265C26.5481 42.0088 26.6893 42.2912 26.8305 42.5735C26.9716 42.8559 26.9716 43.2794 26.9716 43.5617V46.6676C26.9716 47.0911 26.9716 47.3735 26.8305 47.6558C26.6893 47.9382 26.5481 48.2205 26.4069 48.5029C26.2658 48.7852 26.1246 48.9264 25.8422 49.0676C25.7011 49.2088 25.4187 49.3499 25.1364 49.4911C24.854 49.6323 24.7128 49.6323 24.4305 49.7735C24.1481 49.7735 24.0069 49.9146 23.7246 49.9146H19.4893V48.2205H23.7246C24.0069 48.2205 24.1481 48.2205 24.2893 48.0794C24.4305 47.9382 24.5717 47.9382 24.7128 47.797C24.854 47.6558 24.9952 47.5147 24.9952 47.3735C24.9952 47.2323 25.1364 46.95 25.1364 46.8088V46.1029H20.6187C20.4776 46.1029 20.3364 46.1029 20.054 46.1029C19.9129 46.1029 19.6305 45.9617 19.4893 45.9617C19.3482 45.8205 19.207 45.8205 18.9246 45.6794C18.7835 45.5382 18.6423 45.397 18.5011 45.2558C18.3599 45.1147 18.2188 44.8323 18.2188 44.6911C18.0776 44.4088 18.0776 44.2676 18.0776 43.8441L18.3599 43.5617ZM25.2775 43.5617C25.2775 43.2794 25.2775 43.1382 25.1364 42.997C24.9952 42.8559 24.9952 42.7147 24.854 42.5735C24.7128 42.4323 24.5717 42.2912 24.4305 42.2912C24.2893 42.2912 24.0069 42.15 23.8658 42.15H20.7599C20.6187 42.15 20.3364 42.15 20.1952 42.2912C20.054 42.4323 20.054 42.5735 20.054 42.7147V43.4206C20.054 43.7029 20.054 43.8441 20.1952 43.9853C20.3364 44.1264 20.4776 44.1264 20.7599 44.1264H25.2775V43.4206V43.5617ZM38.548 45.8205C38.548 46.2441 38.548 46.5264 38.4069 46.95C38.2657 47.2323 38.1245 47.6558 37.9833 47.9382C37.8422 48.2205 37.5598 48.5029 37.4186 48.7852C37.1363 49.0676 36.8539 49.2088 36.5716 49.3499C36.2892 49.4911 36.0069 49.6323 35.5833 49.7735C35.301 49.9146 34.8775 49.9146 34.5951 49.9146H31.4893C31.2069 49.9146 30.7834 49.9146 30.501 49.7735C30.2187 49.6323 29.7951 49.4911 29.5128 49.3499C29.2304 49.2088 28.9481 48.9264 28.6657 48.7852C28.3834 48.5029 28.2422 48.3617 28.101 47.9382C27.9599 47.6558 27.8187 47.3735 27.6775 46.95C27.5363 46.6676 27.5363 46.2441 27.5363 45.8205V44.2676C27.5363 43.7029 27.6775 43.1382 27.8187 42.7147C28.101 42.2912 28.3834 41.8676 28.6657 41.4441C29.0893 41.1618 29.5128 40.8794 29.9363 40.597C30.3598 40.4559 30.9246 40.3147 31.3481 40.3147H34.4539C34.7363 40.3147 35.1598 40.3147 35.4422 40.4559C35.7245 40.597 36.1481 40.7382 36.4304 40.8794C36.7128 41.0206 36.9951 41.3029 37.2775 41.4441C37.5598 41.7265 37.701 41.8676 37.8422 42.2912C37.9833 42.5735 38.1245 42.8559 38.2657 43.2794C38.4069 43.5617 38.4069 43.9853 38.4069 44.4088V45.9617L38.548 45.8205ZM36.8539 44.2676C36.8539 43.9853 36.8539 43.5617 36.7128 43.4206C36.5716 43.1382 36.4304 42.8559 36.2892 42.7147C36.1481 42.5735 35.8657 42.4323 35.5833 42.2912C35.301 42.15 35.0186 42.15 34.7363 42.15H31.6304C31.3481 42.15 31.0657 42.15 30.7834 42.2912C30.501 42.4323 30.2187 42.5735 30.0775 42.7147C29.9363 42.8559 29.654 43.1382 29.5128 43.4206C29.3716 43.7029 29.3716 43.9853 29.3716 44.4088V45.9617C29.3716 46.2441 29.3716 46.6676 29.5128 46.95C29.654 47.2323 29.7951 47.5147 29.9363 47.6558C30.0775 47.797 30.3598 47.9382 30.6422 48.0794C30.9246 48.2205 31.2069 48.2205 31.4893 48.2205H34.5951C34.8775 48.2205 35.301 48.2205 35.4422 48.0794C35.7245 47.9382 36.0069 47.797 36.1481 47.6558C36.2892 47.5147 36.4304 47.2323 36.5716 46.95C36.7128 46.6676 36.7128 46.3852 36.7128 46.1029V44.55L36.8539 44.2676ZM36.1481 42.997C36.1481 43.1382 36.2892 43.1382 36.2892 43.2794C36.2892 43.4206 36.2892 43.5617 36.2892 43.5617C36.2892 43.7029 36.2892 43.7029 36.1481 43.8441C36.1481 43.9853 36.0069 43.9853 35.8657 44.1264L31.2069 47.2323C31.0657 47.2323 31.0657 47.3735 30.9246 47.3735C30.7834 47.3735 30.7834 47.3735 30.6422 47.3735C30.501 47.3735 30.3598 47.3735 30.2187 47.2323C30.0775 47.2323 29.9363 47.0911 29.9363 46.95C29.9363 46.8088 29.7951 46.8088 29.7951 46.6676C29.7951 46.5264 29.7951 46.3852 29.7951 46.3852C29.7951 46.2441 29.7951 46.2441 29.9363 46.1029C29.9363 45.9617 30.0775 45.9617 30.2187 45.8205L34.8775 42.7147C35.0186 42.7147 35.0186 42.5735 35.1598 42.5735C35.301 42.5735 35.4422 42.5735 35.4422 42.5735C35.5833 42.5735 35.5833 42.5735 35.7245 42.7147C35.8657 42.7147 35.8657 42.8559 36.0069 42.997H36.1481ZM50.1244 45.8205C50.1244 46.2441 50.1244 46.5264 49.9833 46.95C49.8421 47.2323 49.7009 47.6558 49.5597 47.9382C49.4186 48.2205 49.1362 48.5029 48.995 48.7852C48.7127 49.0676 48.4303 49.2088 48.148 49.3499C47.8656 49.4911 47.5833 49.6323 47.1597 49.7735C46.8774 49.9146 46.4539 49.9146 46.1715 49.9146H43.0657C42.7833 49.9146 42.3598 49.9146 42.0774 49.7735C41.7951 49.6323 41.3715 49.4911 41.0892 49.3499C40.8068 49.2088 40.5245 48.9264 40.2421 48.7852C39.9598 48.5029 39.8186 48.3617 39.6774 47.9382C39.5363 47.6558 39.3951 47.3735 39.2539 46.95C39.1127 46.6676 39.1127 46.2441 39.1127 45.8205V44.2676C39.1127 43.7029 39.2539 43.1382 39.3951 42.7147C39.6774 42.2912 39.9598 41.8676 40.2421 41.4441C40.6657 41.1618 41.0892 40.8794 41.5127 40.597C41.9362 40.4559 42.501 40.3147 42.9245 40.3147H46.0303C46.3127 40.3147 46.7362 40.3147 47.0186 40.4559C47.3009 40.597 47.7244 40.7382 48.0068 40.8794C48.2891 41.0206 48.5715 41.3029 48.8539 41.4441C49.1362 41.7265 49.2774 41.8676 49.4186 42.2912C49.5597 42.5735 49.7009 42.8559 49.8421 43.2794C49.9833 43.5617 49.9833 43.9853 49.9833 44.4088V45.9617L50.1244 45.8205ZM48.4303 44.2676C48.4303 43.9853 48.4303 43.5617 48.2891 43.4206C48.148 43.1382 48.0068 42.8559 47.8656 42.7147C47.7244 42.5735 47.4421 42.4323 47.1597 42.2912C46.8774 42.15 46.595 42.15 46.3127 42.15H43.2068C42.9245 42.15 42.6421 42.15 42.3598 42.2912C42.0774 42.4323 41.7951 42.5735 41.6539 42.7147C41.5127 42.8559 41.2304 43.1382 41.0892 43.4206C40.948 43.7029 40.948 43.9853 40.948 44.4088V45.9617C40.948 46.2441 40.948 46.6676 41.0892 46.95C41.2304 47.2323 41.3715 47.5147 41.5127 47.6558C41.6539 47.797 41.9363 47.9382 42.2186 48.0794C42.501 48.2205 42.7833 48.2205 43.0657 48.2205H46.1715C46.4539 48.2205 46.8774 48.2205 47.0186 48.0794C47.3009 47.9382 47.5833 47.797 47.7244 47.6558C47.8656 47.5147 48.0068 47.2323 48.148 46.95C48.2891 46.6676 48.2891 46.3852 48.2891 46.1029V44.55L48.4303 44.2676ZM47.7244 42.997C47.7244 43.1382 47.8656 43.1382 47.8656 43.2794C47.8656 43.4206 47.8656 43.5617 47.8656 43.5617C47.8656 43.7029 47.8656 43.7029 47.7244 43.8441C47.7244 43.9853 47.5833 43.9853 47.4421 44.1264L42.7833 47.2323C42.6421 47.2323 42.6421 47.3735 42.501 47.3735C42.3598 47.3735 42.3598 47.3735 42.2186 47.3735C42.0774 47.3735 41.9363 47.3735 41.7951 47.2323C41.6539 47.2323 41.5127 47.0911 41.5127 46.95C41.5127 46.8088 41.3715 46.8088 41.3715 46.6676C41.3715 46.5264 41.3715 46.3852 41.3715 46.3852C41.3715 46.2441 41.3715 46.2441 41.5127 46.1029C41.5127 45.9617 41.6539 45.9617 41.7951 45.8205L46.4539 42.7147C46.595 42.7147 46.595 42.5735 46.7362 42.5735C46.8774 42.5735 47.0186 42.5735 47.0186 42.5735C47.1597 42.5735 47.1597 42.5735 47.3009 42.7147C47.4421 42.7147 47.4421 42.8559 47.5833 42.997H47.7244ZM53.6538 49.6323H51.9597V42.0088H50.4068V40.3147H53.6538V49.6323Z" fill="#FEFEFE"/>
<path d="M39.818 30.8554L45.1826 36.2201L53.3708 27.8908L51.9591 26.479L45.1826 33.2554L41.2297 29.3025L39.818 30.8554Z" fill="#FEFEFE"/>
<path d="M39.818 30.8554L45.1826 36.2201L53.3708 27.8908L51.9591 26.479L45.1826 33.2554L41.2297 29.3025L39.818 30.8554Z" fill="#E31E24"/>
</svg>
