<svg width="73" height="72" viewBox="0 0 73 72" fill="none" xmlns="http://www.w3.org/2000/svg">
<path fill-rule="evenodd" clip-rule="evenodd" d="M36.5761 0C56.3104 0 72.1535 15.982 72.1535 35.5774C72.1535 55.3117 56.1715 71.1547 36.5761 71.1547C16.8418 71.1547 0.998779 55.1727 0.998779 35.5774C0.998779 15.843 16.9808 0 36.5761 0Z" fill="#E31E24"/>
<path d="M27.8204 9.31157C27.4035 9.86747 26.8476 10.2844 26.1527 10.7013C25.3189 11.1182 24.624 11.1182 23.7901 10.8403C23.0953 10.5623 22.5394 10.0064 22.1225 9.03362C21.7055 8.19978 21.7055 7.22696 21.9835 6.53209C22.2614 5.69825 22.8173 5.14235 23.7901 4.72543C24.346 4.44748 25.0409 4.30851 25.4578 4.30851L25.7358 5.00338C25.1799 4.8644 24.485 5.00338 23.9291 5.28132C23.2342 5.55927 22.8173 5.97619 22.6783 6.67106C22.4004 7.36593 22.5394 7.92183 22.8173 8.6167C23.0953 9.31157 23.6512 9.86747 24.2071 10.0064C24.763 10.2844 25.3189 10.2844 26.0137 9.86747C26.4306 9.72849 26.8476 9.45054 26.9865 9.03362L26.2917 7.36593L25.0409 7.92183L24.763 7.36593L26.7086 6.53209L27.8204 9.1726V9.31157ZM32.5455 8.89465C31.7117 9.03362 30.8778 8.89465 30.3219 8.33875C29.627 7.92183 29.3491 7.08799 29.0712 6.25414C28.9322 5.28132 29.0712 4.44748 29.4881 3.75261C29.905 3.05774 30.5999 2.64082 31.5727 2.50184C32.4065 2.36287 33.1014 2.50184 33.7963 3.05774C34.3522 3.47466 34.7691 4.30851 34.9081 5.14235C35.047 6.11517 34.9081 6.94901 34.4911 7.64388C34.0742 8.33875 33.3793 8.75567 32.5455 8.89465ZM31.5727 3.19671C30.8778 3.33569 30.4609 3.61364 30.1829 4.16953C29.905 4.72543 29.766 5.4203 29.905 6.11517C30.044 6.81004 30.3219 7.50491 30.8778 7.78286C31.2947 8.19978 31.8506 8.33875 32.5455 8.19978C33.2404 8.0608 33.6573 7.78286 34.0742 7.22696C34.3522 6.67106 34.4911 6.11517 34.3522 5.28132C34.2132 4.44748 33.9352 3.89158 33.5183 3.47466C33.1014 3.05774 32.5455 2.91877 31.8506 3.05774L31.5727 3.19671ZM39.9111 8.75567C39.0773 8.6167 38.3824 8.19978 37.9655 7.64388C37.5486 6.94901 37.2706 6.25414 37.4096 5.28132C37.5486 4.30851 37.9655 3.47466 38.5214 2.91877C39.0773 2.36287 39.9111 2.2239 40.8839 2.36287C41.7178 2.50184 42.4127 2.91877 42.8296 3.47466C43.2465 4.16953 43.3855 4.8644 43.3855 5.83722C43.2465 6.81004 42.8296 7.64388 42.2737 8.19978C41.7178 8.75567 40.8839 8.89465 40.0501 8.75567H39.9111ZM40.745 2.91877C40.0501 2.77979 39.4942 3.05774 39.0773 3.47466C38.6604 3.89158 38.3824 4.44748 38.2434 5.28132C38.1045 6.11517 38.2434 6.67106 38.6604 7.22696C38.9383 7.78286 39.4942 8.0608 40.1891 8.0608C40.8839 8.19978 41.4398 8.0608 41.8568 7.64388C42.2737 7.22696 42.5516 6.67106 42.6906 5.83722C42.8296 5.00338 42.6906 4.30851 42.4127 3.89158C42.1347 3.33569 41.5788 3.05774 40.8839 3.05774L40.745 2.91877ZM44.6362 9.58952L46.9988 3.75261L48.6665 4.44748C50.7511 5.28132 51.307 6.67106 50.6121 8.47773C50.1952 9.31157 49.6393 10.0064 48.9444 10.2844C48.1106 10.5623 47.2767 10.5623 46.3039 10.1454L44.7752 9.58952H44.6362ZM47.4157 4.58645L45.6091 9.1726L46.4429 9.45054C47.1378 9.72849 47.8326 9.72849 48.5275 9.58952C49.0834 9.31157 49.5003 8.89465 49.9173 8.0608C50.4731 6.53209 50.0562 5.55927 48.3885 4.8644L47.4157 4.44748V4.58645ZM59.9234 21.1244L59.5065 20.5685L62.8418 17.928C63.1198 17.789 63.3977 17.511 63.8147 17.2331C63.5367 17.3721 63.3977 17.3721 63.2588 17.511L58.1167 18.9008L57.8388 18.6228L60.2013 13.8977C60.3403 13.7587 60.3403 13.6198 60.6183 13.3418C60.4793 13.4808 60.0624 13.7587 59.6454 14.1757L56.3101 16.8162L55.8931 16.2603L60.7572 12.369L61.3131 13.0639L59.0895 17.2331C58.9506 17.511 58.8116 17.789 58.6726 17.928C58.9506 17.789 59.2285 17.789 59.5065 17.65L64.0926 16.5382L64.6485 17.2331L59.7844 21.1244H59.9234ZM62.9808 27.5172L62.7029 26.8223L64.0926 25.4326L62.9808 23.07L61.1742 23.209L60.8962 22.5141L67.567 22.0972L67.8449 22.7921L63.1198 27.6561L62.9808 27.5172ZM64.5095 25.0156L66.5941 23.07C66.5941 23.07 66.7331 22.931 66.8721 22.7921C66.7331 22.7921 66.5941 22.931 66.4552 22.931L63.6757 23.209L64.5095 25.1546V25.0156ZM64.0926 34.0489L63.9536 33.2151L68.5398 29.3238C68.6787 29.1849 68.8177 29.1849 68.9567 29.0459C68.8177 29.0459 68.5398 29.1849 68.1229 29.1849L63.6757 29.7408L63.5367 29.0459L69.7905 28.212L69.9295 29.1849L65.4823 32.9372C65.3434 33.0761 65.2044 33.2151 65.0654 33.2151C65.2044 33.2151 65.4823 33.0761 66.0382 33.0761L70.4854 32.5202L70.6244 33.2151L64.3706 34.0489H64.0926ZM66.0382 41.1366C64.2316 40.8587 63.5367 40.0248 63.6757 38.4961C63.8147 36.9674 64.7875 36.2725 66.4552 36.5505L70.2075 37.1064L70.0685 37.8012L66.3162 37.3843C65.0654 37.2453 64.3706 37.6623 64.2316 38.7741C64.0926 39.7469 64.6485 40.4418 65.8993 40.5807L69.7905 41.1366L69.6516 41.8315L65.8993 41.4146L66.0382 41.1366ZM67.289 47.8074L68.1229 45.4448L66.0382 44.7499L65.3434 46.9735L64.6485 46.6956L65.3434 44.611L62.7029 43.7771L62.9808 43.0823L68.9567 45.0279L67.9839 48.0853L67.289 47.8074ZM59.0895 51.4207L59.5065 50.7258L61.3131 51.0038L62.7029 48.6412L61.4521 47.2515L61.869 46.5566L66.1772 51.8376L65.7603 52.5325L59.0895 51.4207ZM62.008 51.1428L64.7875 51.5597C64.9265 51.5597 65.0654 51.5597 65.2044 51.6986C65.0654 51.5597 64.9264 51.4207 64.9264 51.4207L63.1198 49.1971L62.008 51.1428ZM55.4762 55.8679C55.6152 55.312 55.8931 54.8951 56.3101 54.3392C56.866 53.6443 57.5608 53.3663 58.3947 53.2274C59.2285 53.2274 59.9234 53.5053 60.6183 54.0612C61.3131 54.7561 61.73 55.451 61.869 56.2848C61.869 57.1186 61.73 57.9525 61.0352 58.6473C60.6183 59.0643 60.2013 59.3422 59.9234 59.6202L59.3675 59.0643C59.7844 58.9253 60.3403 58.6474 60.6183 58.2304C61.0352 57.6745 61.3131 57.1186 61.1742 56.4238C61.1742 55.7289 60.7572 55.173 60.2013 54.6171C59.6454 54.0612 59.0895 53.9222 58.3947 53.9222C57.8388 53.9222 57.2829 54.2002 56.727 54.7561C56.3101 55.173 56.0321 55.7289 56.0321 56.2848L55.4762 55.8679ZM54.0865 63.5114L55.6152 62.3996L52.4188 57.8135L52.9747 57.3966L56.1711 61.9827L57.6998 60.8709L58.1167 61.4268L54.5034 63.9284L54.0865 63.3725V63.5114ZM46.3039 63.9284C45.6091 62.2607 45.887 61.1489 47.4157 60.593C48.8055 59.8981 49.7783 60.454 50.6121 61.9827L52.1408 65.4571L51.446 65.735L49.9173 62.2607C49.3614 61.1489 48.6665 60.732 47.6937 61.1489C46.7208 61.5658 46.5819 62.3997 46.9988 63.5114L48.5275 66.9858L47.8326 67.2637L46.3039 63.7894V63.9284ZM38.6604 62.9555L39.4942 62.8166L40.8839 64.3453C41.0229 64.4843 41.1619 64.6232 41.3009 64.7622C41.4398 64.9012 41.5788 64.9012 41.5788 65.0402C41.7178 65.0402 41.8568 65.1791 41.8568 65.1791C41.9957 65.1791 42.1347 65.1791 42.2737 65.1791L42.8296 65.0402L42.4127 62.3996L43.1075 62.2607L44.2193 68.5145L42.4127 68.7924C42.1347 68.7924 41.8568 68.7924 41.5788 68.7924C41.3009 68.7924 41.1619 68.6535 40.8839 68.6535C40.745 68.5145 40.467 68.3755 40.467 68.2366C40.328 68.0976 40.1891 67.8196 40.1891 67.5417C40.1891 67.2637 40.1891 67.1248 40.1891 66.9858C40.1891 66.8468 40.328 66.5689 40.328 66.4299C40.467 66.2909 40.606 66.1519 40.745 66.013C40.8839 65.874 41.0229 65.735 41.3009 65.735C41.1619 65.735 41.0229 65.735 41.0229 65.596C40.8839 65.596 40.8839 65.4571 40.745 65.4571C40.606 65.4571 40.606 65.3181 40.467 65.1791C40.328 65.0402 40.328 65.0402 40.1891 64.9012L38.6604 63.2335V62.9555ZM43.3855 67.8196L42.9686 65.596L41.9957 65.735C41.8568 65.735 41.7178 65.874 41.4398 65.874C41.3009 66.013 41.1619 66.013 41.0229 66.152C40.8839 66.2909 40.8839 66.4299 40.8839 66.5689C40.8839 66.7078 40.8839 66.8468 40.8839 67.1248C40.8839 67.4027 41.1619 67.6807 41.3009 67.8196C41.5788 67.9586 41.8568 67.9586 42.2737 67.9586L43.2465 67.8196H43.3855ZM36.5757 62.8166H37.2706L37.4096 69.0704H36.7147L36.5757 62.8166ZM29.3491 61.9827L30.1829 62.1217L32.5455 67.6807C32.5455 67.8196 32.6845 67.9586 32.6845 68.0976C32.6845 67.9586 32.6845 67.6807 32.8234 67.2637L33.6573 62.8166L34.3522 62.9555L33.2404 69.2094L32.2676 69.0704L30.044 63.6504C29.905 63.3725 29.905 63.2335 29.905 63.2335C29.905 63.3725 29.905 63.7894 29.766 64.2063L28.9322 68.5145L28.2373 68.3755L29.3491 62.1217V61.9827ZM22.8173 59.7591C23.5122 59.7591 24.2071 59.7591 24.9019 60.1761C25.7358 60.593 26.2917 61.1489 26.5696 61.8438C26.8476 62.5386 26.8476 63.3725 26.4306 64.3453C26.0137 65.1791 25.4578 65.874 24.624 66.152C23.7901 66.4299 22.9563 66.4299 22.1225 66.013C21.5666 65.735 21.0107 65.4571 20.7327 65.0402L21.0107 64.3453C21.2886 64.9012 21.8445 65.1791 22.4004 65.4571C23.0953 65.735 23.6512 65.735 24.2071 65.4571C24.763 65.1791 25.3189 64.7622 25.5968 64.0673C25.8748 63.3725 26.0137 62.6776 25.7358 62.1217C25.5968 61.5658 25.1799 61.1489 24.485 60.8709C24.0681 60.732 23.6512 60.593 23.2342 60.593L22.5394 62.2607L23.7901 62.8166L23.5122 63.3725L21.5666 62.5386L22.6783 59.8981L22.8173 59.7591ZM14.3399 54.8951L16.1466 53.3663L16.5635 53.9222L11.5604 57.8135L10.4486 56.4238C10.0317 55.8679 9.89274 55.4509 9.89274 54.8951C9.89274 54.3392 10.1707 53.9222 10.5876 53.6443C11.0045 53.2274 11.5604 53.0884 12.1163 53.2274C12.6722 53.3663 13.2281 53.6443 13.645 54.2002L14.2009 54.8951H14.3399ZM11.8384 56.8407L13.923 55.312L13.5061 54.7561C13.2281 54.3392 12.8112 54.0612 12.5332 54.0612C12.2553 54.0612 11.8384 54.0612 11.5604 54.3392C10.8656 54.8951 10.8656 55.451 11.5604 56.2848L12.1163 56.9797L11.8384 56.8407ZM11.4215 45.3058L11.8384 46.1397L10.7266 47.8074C10.5876 47.9464 10.5876 48.0853 10.4486 48.2243C10.4486 48.3633 10.3097 48.5022 10.3097 48.6412C10.3097 48.7802 10.3097 48.9192 10.3097 48.9192C10.3097 49.0581 10.3097 49.1971 10.4486 49.3361L10.7266 49.892L13.0891 48.6412L13.3671 49.3361L7.80813 52.1156L6.97428 50.4479C6.83531 50.1699 6.83531 50.031 6.69634 49.753C6.69634 49.4751 6.69634 49.3361 6.69634 49.0581C6.69634 48.7802 6.83531 48.6412 6.97428 48.5022C7.11326 48.3633 7.25223 48.2243 7.53018 48.0853C7.66915 47.9464 7.9471 47.9464 8.08608 47.9464C8.22505 47.9464 8.503 47.9464 8.64197 47.9464C8.78095 47.9464 9.05889 48.0853 9.19787 48.2243C9.33684 48.3633 9.47582 48.5022 9.61479 48.6412C9.61479 48.5022 9.61479 48.3633 9.61479 48.3633C9.61479 48.2243 9.61479 48.2243 9.75376 48.0853C9.75376 47.9464 9.89274 47.9464 9.89274 47.8074C9.89274 47.6684 10.0317 47.5294 10.1707 47.3905L11.2825 45.4448L11.4215 45.3058ZM8.08608 51.1428L10.1707 50.1699L9.75376 49.3361C9.61479 49.1971 9.61479 49.0581 9.47582 48.9192C9.33684 48.7802 9.19787 48.7802 9.05889 48.6412C8.91992 48.6412 8.78095 48.5022 8.64197 48.6412C8.503 48.6412 8.36402 48.6412 8.08608 48.7802C7.80813 48.9192 7.66915 49.1971 7.53018 49.4751C7.39121 49.753 7.53018 50.031 7.66915 50.4479L8.08608 51.2817V51.1428ZM9.75376 39.191L9.89274 40.0248L8.36402 41.1366L8.91992 43.7771L10.7266 43.9161L10.8656 44.7499L4.1948 43.9161L4.05583 43.2212L9.61479 39.4689L9.75376 39.191ZM7.80813 41.4146L5.44557 42.9433C5.3066 42.9433 5.16762 43.0823 5.02865 43.0823C5.16762 43.0823 5.3066 43.0823 5.44557 43.0823L8.22505 43.3602L7.66915 41.2756L7.80813 41.4146ZM9.33684 33.4931C9.61479 33.91 9.75376 34.4659 9.75376 35.1607C9.75376 35.9946 9.47582 36.8284 8.91992 37.3843C8.36402 37.9402 7.66915 38.2182 6.69634 38.2182C5.72352 38.2182 4.88967 37.9402 4.1948 37.3843C3.49993 36.8284 3.22198 35.9946 3.22198 35.1607C3.22198 34.6048 3.22199 34.0489 3.49993 33.632H4.33378C4.05583 34.0489 3.91685 34.6048 4.05583 35.1607C4.05583 35.8556 4.33378 36.4115 4.7507 36.8284C5.3066 37.2453 5.86249 37.5233 6.69634 37.5233C7.53018 37.5233 8.08608 37.2453 8.503 36.8284C8.91992 36.4115 9.19787 35.8556 9.19787 35.1607C9.19787 34.4659 9.05889 34.0489 8.78095 33.4931H9.47582H9.33684ZM5.02865 26.9613L4.7507 28.7679L10.3097 29.7408L10.1707 30.4356L4.61172 29.4628L4.33378 31.2695L3.63891 31.1305L4.47275 26.8223L5.16762 26.9613H5.02865ZM11.4215 25.7105L11.1435 26.4054L5.3066 24.0428L5.58454 23.3479L11.4215 25.7105ZM14.2009 19.8736C14.2009 20.4295 13.923 20.9854 13.645 21.5413C13.2281 22.3751 12.5332 22.7921 11.8384 22.931C11.0045 23.07 10.3097 22.931 9.47582 22.5141C8.64197 21.9582 8.08608 21.4023 7.80813 20.5685C7.53018 19.7346 7.66915 18.9008 8.22505 18.0669C8.503 17.511 8.78095 17.2331 9.19787 16.9551L9.89274 17.3721C9.47582 17.65 9.05889 18.0669 8.78095 18.4839C8.36402 19.0398 8.36402 19.7346 8.503 20.4295C8.64197 21.1244 9.19787 21.5413 9.89274 21.9582C10.5876 22.3751 11.1435 22.5141 11.8384 22.3751C12.3943 22.2362 12.9502 21.8192 13.2281 21.2633C13.5061 20.7074 13.645 20.1515 13.645 19.5956L14.2009 20.0126V19.8736ZM17.8143 15.9823L15.5907 18.4839L10.8656 14.3146L12.9502 11.9521L13.5061 12.369L11.8384 14.1757L13.3671 15.5654L14.8958 13.8977L15.4517 14.3146L13.923 15.9823L15.5907 17.3721L17.2584 15.4264L17.8143 15.8433V15.9823Z" fill="#1F1B20"/>
<path fill-rule="evenodd" clip-rule="evenodd" d="M36.5756 11.3955C49.9171 11.3955 60.896 22.2355 60.896 35.716C60.896 49.0575 50.0561 60.0364 36.5756 60.0364C23.2341 60.0364 12.2551 49.1964 12.2551 35.716C12.2551 22.3745 23.0951 11.3955 36.5756 11.3955Z" fill="#FEFEFE"/>
<path d="M28.0982 40.7196C28.0982 40.8586 28.0982 40.9976 27.9592 41.1365C27.9592 41.2755 27.8202 41.4145 27.6813 41.5534C27.5423 41.6924 27.4033 41.6924 27.2643 41.8314C27.1254 41.8314 26.9864 41.9704 26.8474 41.9704H18.7869C18.6479 41.9704 18.37 41.9704 18.092 41.8314C17.8141 41.8314 17.6751 41.6924 17.3972 41.5534C17.1192 41.4145 16.9803 41.2755 16.7023 41.1365C16.4244 40.9976 16.2854 40.7196 16.1464 40.5806C16.0074 40.3027 15.8685 40.0247 15.7295 39.7468C15.5905 39.4688 15.5905 39.0519 15.5905 38.774V32.7981C15.5905 32.6591 15.5905 32.3812 15.7295 32.1032C15.7295 31.8253 15.8685 31.6863 16.0074 31.4083C16.1464 31.1304 16.2854 30.9914 16.4244 30.7135C16.5633 30.4355 16.8413 30.2966 16.9803 30.1576C17.2582 30.0186 17.5362 29.8796 17.8141 29.7407C18.092 29.6017 18.509 29.6017 18.7869 29.6017H27.8202V31.8253H18.7869C18.509 31.8253 18.231 31.9642 18.092 32.1032C17.9531 32.2422 17.8141 32.5201 17.8141 32.7981V38.774C17.8141 39.0519 17.9531 39.3299 18.092 39.4688C18.231 39.6078 18.509 39.7468 18.7869 39.7468H25.7356V36.9673H19.7597V34.7437H26.8474C26.9864 34.7437 27.1254 34.7437 27.2643 34.8827C27.4033 34.8827 27.5423 35.0217 27.6813 35.1606C27.8202 35.2996 27.8202 35.4386 27.9592 35.5776C27.9592 35.7165 28.0982 35.8555 28.0982 35.9945V40.9976V40.7196ZM43.6633 41.8314H41.4397V34.4658L37.5484 41.4145C37.4094 41.5534 37.2705 41.6924 37.1315 41.8314C36.9925 41.9704 36.7146 41.9704 36.5756 41.9704C36.4366 41.9704 36.1587 41.9704 36.0197 41.8314C35.8807 41.6924 35.7417 41.5534 35.6028 41.4145L31.5725 34.4658V41.8314H29.3489V30.4355C29.3489 30.1576 29.4879 29.8796 29.6269 29.7407C29.7659 29.6017 30.0438 29.4627 30.1828 29.3237C30.3218 29.3237 30.4607 29.3237 30.5997 29.3237C30.7387 29.3237 30.8777 29.3237 30.8777 29.4627C31.0166 29.4627 31.1556 29.6017 31.1556 29.6017C31.2946 29.7407 31.2946 29.7407 31.4336 29.8796L36.5756 38.774L41.7176 29.8796C41.8566 29.6017 41.9956 29.4627 42.2735 29.4627C42.5515 29.3237 42.6904 29.3237 42.9684 29.4627C43.2463 29.4627 43.3853 29.6017 43.5243 29.8796C43.6633 30.0186 43.8022 30.2966 43.8022 30.5745V41.9704L43.6633 41.8314ZM57.4217 34.7437C57.4217 35.2996 57.4217 35.7165 57.2827 36.1335C57.1437 36.5504 57.0048 36.8283 56.7268 37.2453C56.4489 37.5232 56.3099 37.8011 56.032 38.0791C55.754 38.357 55.4761 38.496 55.1981 38.635C54.9202 38.774 54.6422 38.9129 54.2253 38.9129C53.9473 38.9129 53.6694 39.0519 53.3914 39.0519H48.3884V36.8283H53.3914C53.6694 36.8283 53.9473 36.6894 54.2253 36.6894C54.5032 36.5504 54.6422 36.4114 54.7812 36.2724C54.9202 36.1335 55.0591 35.8555 55.1981 35.7165C55.3371 35.4386 55.3371 35.2996 55.3371 34.8827V33.9099C55.3371 33.6319 55.1981 33.354 55.1981 33.076C55.0591 32.7981 54.9202 32.6591 54.7812 32.5201C54.6422 32.3812 54.5032 32.2422 54.2253 32.1032C53.9473 31.9642 53.8084 31.9642 53.3914 31.9642H48.3884C48.1104 31.9642 47.8325 32.1032 47.6935 32.2422C47.5545 32.3812 47.4156 32.6591 47.4156 32.9371V42.1093H45.192V32.9371C45.192 32.3812 45.331 31.8253 45.4699 31.5473C45.7479 31.1304 45.8869 30.8524 46.3038 30.5745C46.5817 30.2966 46.9986 30.1576 47.2766 30.0186C47.6935 29.8796 47.9715 29.8796 48.2494 29.8796H53.2525C53.8084 29.8796 54.2253 29.8796 54.6422 30.0186C55.0591 30.1576 55.3371 30.2966 55.754 30.5745C56.032 30.8524 56.3099 30.9914 56.5879 31.2694C56.8658 31.5473 57.0048 31.8253 57.1437 32.1032C57.2827 32.3812 57.4217 32.6591 57.4217 33.076C57.4217 33.354 57.5607 33.6319 57.5607 33.9099V34.8827L57.4217 34.7437Z" fill="#E31E24"/>
</svg>
