<svg width="167" height="44" viewBox="0 0 167 44" fill="none" xmlns="http://www.w3.org/2000/svg">
<path d="M74.5985 16.5889C74.5985 16.9691 74.5333 17.3735 74.4 17.8101C74.2704 18.243 74.0565 18.6467 73.7613 19.0188C73.4661 19.3909 73.0822 19.6979 72.6091 19.9485C72.1322 20.1953 71.5536 20.3206 70.8665 20.3206H59.1737C58.9554 20.3206 58.7495 20.2803 58.5591 20.2034C58.3688 20.1221 58.2075 20.0136 58.0655 19.8759C57.9278 19.7382 57.8187 19.5726 57.7418 19.3866C57.6612 19.1968 57.6246 18.9903 57.6246 18.7683V4.88731C57.6246 4.67334 57.6612 4.47054 57.7418 4.28077C57.8187 4.09099 57.9278 3.92478 58.0655 3.78338C58.2069 3.64198 58.3688 3.53283 58.5591 3.45158C58.7489 3.37468 58.9554 3.33437 59.1737 3.33437H69.4798C69.86 3.33437 70.268 3.39949 70.7009 3.53655C71.1337 3.66989 71.5374 3.88447 71.9139 4.17968C72.2897 4.47861 72.601 4.86312 72.8521 5.33632C73.099 5.80952 73.2242 6.39187 73.2242 7.07904V7.65705C73.2242 8.20281 73.1356 8.78888 72.9532 9.41589C72.7715 10.0466 72.4763 10.637 72.0757 11.1989C72.4236 11.4135 72.7467 11.6678 73.05 11.971C73.3576 12.27 73.6242 12.6179 73.8506 13.0105C74.0813 13.4068 74.263 13.8514 74.3963 14.3488C74.5296 14.8462 74.5985 15.3957 74.5985 15.9985V16.5889ZM71.5176 15.9985C71.5176 15.5942 71.4531 15.2344 71.3278 14.9151C71.2026 14.5957 71.0246 14.3209 70.7939 14.0902C70.5676 13.8601 70.2885 13.6859 69.9648 13.5649C69.6411 13.4396 69.2777 13.3789 68.877 13.3789H61.9352V10.2773H67.4904C67.8947 10.2773 68.2544 10.2128 68.5781 10.0913C68.9056 9.97033 69.1803 9.79234 69.411 9.56597C69.6373 9.33526 69.8153 9.06052 69.9369 8.74113C70.0584 8.42173 70.1186 8.06203 70.1186 7.65767V7.07966C70.1186 6.63498 69.9083 6.41234 69.4798 6.41234H60.7024V17.2401H70.8665C70.9229 17.2401 70.988 17.2364 71.0686 17.2283C71.1455 17.2203 71.2181 17.1961 71.2832 17.1595C71.344 17.1192 71.4004 17.0503 71.4488 16.9573C71.4934 16.8643 71.5176 16.731 71.5176 16.5654V15.9985ZM80.0563 4.88731H76.9755V2.10144H80.0563V4.88731ZM80.0563 20.3206H76.9755V7.51565H80.0563V20.3206ZM96.9359 15.9985C96.9359 16.5244 96.8671 17.0014 96.7338 17.4256C96.6004 17.846 96.4224 18.2182 96.2004 18.5375C95.9778 18.8569 95.7235 19.1323 95.4321 19.3543C95.1369 19.5807 94.8336 19.7624 94.5143 19.9044C94.1949 20.0502 93.8675 20.155 93.54 20.2201C93.2126 20.2889 92.905 20.3212 92.6098 20.3212H87.0546C86.6298 20.3212 86.1653 20.2443 85.6599 20.0948C85.1545 19.9454 84.6857 19.6985 84.2571 19.3549C83.8243 19.0114 83.4646 18.5667 83.1775 18.0166C82.8904 17.4665 82.7446 16.7955 82.7446 15.9991V11.8265C82.7446 11.0383 82.8904 10.371 83.1775 9.82087C83.4646 9.27076 83.8243 8.82609 84.2571 8.48251C84.6857 8.13893 85.1545 7.8921 85.6599 7.74263C86.1653 7.59317 86.6304 7.51626 87.0546 7.51626H92.6098C93.4024 7.51626 94.0734 7.65767 94.6234 7.94047C95.1772 8.22762 95.6262 8.5836 95.9654 9.01587C96.3052 9.44442 96.5521 9.91327 96.7052 10.4187C96.859 10.9242 96.9353 11.393 96.9353 11.8259L96.9359 15.9985ZM93.8551 11.8501C93.8551 11.4253 93.7503 11.1102 93.5357 10.9043C93.3217 10.6978 93.0142 10.5967 92.6098 10.5967H87.0788C86.6707 10.5967 86.3594 10.7021 86.1449 10.908C85.9303 11.1183 85.8255 11.4253 85.8255 11.8259V15.9985C85.8255 16.3992 85.9303 16.7061 86.1449 16.9201C86.3588 17.1347 86.6707 17.2395 87.0788 17.2395H92.6098C93.0303 17.2395 93.3416 17.1347 93.5481 16.9201C93.7546 16.7061 93.8551 16.3985 93.8551 15.9985V11.8501ZM74.5737 32.0203C74.5737 32.7199 74.485 33.3506 74.3107 33.9007C74.1371 34.4546 73.9027 34.9439 73.6075 35.3644C73.3123 35.7886 72.9687 36.1489 72.5849 36.4478C72.1967 36.7511 71.7923 36.9936 71.3681 37.184C70.9477 37.3738 70.5192 37.5114 70.0907 37.5964C69.6621 37.6851 69.2578 37.7297 68.8777 37.7297H61.9116V34.6487H68.8777C69.2696 34.6164 69.6299 34.5352 69.9493 34.4062C70.2686 34.2766 70.5434 34.0992 70.7741 33.8809C71.0004 33.6582 71.1784 33.3916 71.3037 33.0802C71.4333 32.7689 71.4934 32.4129 71.4934 32.021V30.6218C71.4531 30.2336 71.3719 29.8776 71.2466 29.5545C71.117 29.2307 70.9477 28.956 70.7288 28.7253C70.5148 28.4989 70.2519 28.3172 69.9406 28.1876C69.6336 28.058 69.2777 27.9898 68.8777 27.9898H61.9358C61.5234 27.9898 61.2121 28.0989 60.9975 28.3135C60.7873 28.5237 60.6782 28.8351 60.6782 29.2351V41.8986H57.6017V29.2351C57.6017 28.4468 57.743 27.7758 58.0345 27.2214C58.3216 26.6675 58.6813 26.2229 59.1098 25.883C59.5427 25.5431 60.0072 25.2969 60.5126 25.1431C61.018 24.9893 61.4868 24.9124 61.9116 24.9124H68.8777C69.5728 24.9124 70.1955 25.0017 70.7493 25.1797C71.2993 25.3577 71.7886 25.5921 72.2091 25.8911C72.6332 26.1863 72.9935 26.5261 73.2887 26.9144C73.5839 27.3026 73.8307 27.707 74.0242 28.1274C74.2183 28.5523 74.356 28.9765 74.4447 29.4094C74.5296 29.8379 74.5737 30.2423 74.5737 30.6224V32.0216V32.0203ZM88.0047 32.1741H81.0746C80.6585 32.1741 80.3391 32.2796 80.1289 32.4855C79.9143 32.6957 79.8095 33.0027 79.8095 33.4033V41.8986H76.7286V33.4033C76.7286 32.878 76.7931 32.4005 76.9308 31.9844C77.0641 31.5639 77.2421 31.1961 77.4685 30.8767C77.6948 30.5573 77.9534 30.2826 78.2449 30.0599C78.5357 29.8336 78.8433 29.6512 79.1627 29.5098C79.4821 29.3641 79.8058 29.263 80.1332 29.1942C80.4606 29.1253 80.7682 29.0931 81.051 29.0931H88.0053L88.0047 32.1741ZM103.914 37.5759C103.914 38.1019 103.846 38.5788 103.712 39.003C103.579 39.4235 103.401 39.7956 103.178 40.115C102.956 40.4344 102.701 40.7091 102.41 40.9318C102.115 41.1581 101.811 41.3398 101.492 41.4819C101.173 41.6276 100.845 41.7324 100.518 41.7975C100.19 41.8664 99.8828 41.8986 99.5876 41.8986H94.0324C93.6076 41.8986 93.1431 41.8217 92.6377 41.6723C92.1323 41.5228 91.6635 41.276 91.235 40.9324C90.8021 40.5888 90.4424 40.1441 90.1553 39.594C89.8682 39.0439 89.7225 38.3729 89.7225 37.5759V33.4033C89.7225 32.6151 89.8682 31.9478 90.1553 31.3977C90.4424 30.8476 90.8021 30.4029 91.235 30.0593C91.6635 29.7157 92.1323 29.4689 92.6377 29.3194C93.1431 29.17 93.6082 29.0931 94.0324 29.0931H99.5876C100.38 29.0931 101.051 29.2345 101.601 29.5173C102.155 29.8044 102.604 30.1604 102.943 30.5927C103.283 31.0212 103.53 31.4901 103.683 31.9955C103.837 32.501 103.914 32.9698 103.914 33.4027L103.914 37.5759ZM100.834 33.4275C100.834 33.0027 100.729 32.6877 100.514 32.4818C100.3 32.2752 99.9926 32.1741 99.5883 32.1741H94.0572C93.6492 32.1741 93.3379 32.2796 93.1233 32.4855C92.9087 32.6957 92.8039 33.0027 92.8039 33.4033V37.5759C92.8039 37.9766 92.9087 38.2836 93.1233 38.4975C93.3372 38.7121 93.6492 38.8169 94.0572 38.8169H99.5883C100.009 38.8169 100.32 38.7121 100.527 38.4975C100.733 38.2836 100.834 37.976 100.834 37.5759V33.4275ZM120.58 37.5759C120.58 38.1019 120.511 38.5788 120.378 39.003C120.245 39.4235 120.067 39.7956 119.844 40.115C119.626 40.4344 119.367 40.7091 119.076 40.9318C118.785 41.1581 118.477 41.3398 118.158 41.4819C117.838 41.6276 117.515 41.7324 117.187 41.7975C116.86 41.8664 116.548 41.8986 116.258 41.8986H110.702C110.173 41.8986 109.7 41.8298 109.279 41.6964C108.862 41.5631 108.491 41.3851 108.172 41.1587C107.852 40.9324 107.581 40.6738 107.355 40.3823C107.129 40.0914 106.947 39.7838 106.805 39.4644C106.663 39.145 106.558 38.8213 106.49 38.4938C106.425 38.1664 106.389 37.8587 106.389 37.5759V33.4033C106.389 32.6151 106.534 31.9478 106.822 31.3977C107.113 30.8476 107.468 30.4029 107.901 30.0593C108.33 29.7157 108.799 29.4689 109.304 29.3194C109.809 29.17 110.275 29.0931 110.703 29.0931H116.258V32.1741H110.727C110.315 32.1741 110.004 32.2796 109.789 32.4855C109.574 32.6957 109.47 33.0027 109.47 33.4033V37.5518C109.47 37.9685 109.574 38.2836 109.785 38.4975C109.991 38.7121 110.299 38.8169 110.703 38.8169H116.258C116.675 38.8169 116.986 38.7121 117.192 38.4975C117.399 38.2836 117.5 37.976 117.5 37.5759V23.6789H120.581L120.58 37.5759ZM137.517 40.3457C137.517 40.5677 137.48 40.7742 137.399 40.964C137.319 41.1501 137.213 41.3156 137.072 41.4533C136.934 41.591 136.773 41.7002 136.587 41.7808C136.401 41.8577 136.203 41.898 135.989 41.898H129.026C128.646 41.898 128.242 41.8533 127.809 41.7684C127.38 41.6797 126.956 41.542 126.54 41.3479C126.119 41.1538 125.715 40.9069 125.323 40.6117C124.935 40.3165 124.591 39.9568 124.3 39.5363C124.009 39.1115 123.77 38.6228 123.596 38.0727C123.418 37.5189 123.33 36.8962 123.33 36.2004V29.0925H126.406V36.2004C126.406 36.601 126.475 36.9644 126.616 37.2838C126.754 37.6032 126.94 37.878 127.178 38.1043C127.413 38.335 127.692 38.5124 128.011 38.634C128.331 38.7555 128.678 38.8157 129.051 38.8157H134.44V29.0918H137.517V40.3444L137.517 40.3457ZM152.812 41.898H144.459C144.034 41.898 143.569 41.8211 143.064 41.6716C142.558 41.5222 142.09 41.2753 141.661 40.9318C141.228 40.5882 140.869 40.1435 140.581 39.5934C140.294 39.0433 140.149 38.3723 140.149 37.5753V33.4027C140.149 33.1112 140.181 32.8042 140.25 32.4811C140.315 32.1574 140.42 31.8343 140.561 31.5149C140.707 31.1955 140.888 30.8885 141.115 30.597C141.337 30.3055 141.612 30.0469 141.931 29.8286C142.251 29.606 142.619 29.428 143.039 29.2946C143.456 29.1613 143.933 29.0925 144.458 29.0925H152.811V32.1735H144.458C144.058 32.1735 143.75 32.2746 143.54 32.4811C143.334 32.6877 143.229 33.0027 143.229 33.4269V37.5753C143.229 37.976 143.334 38.283 143.548 38.4969C143.762 38.7115 144.074 38.8163 144.482 38.8163H152.811V41.8974L152.812 41.898ZM166.999 32.1735H161.622V41.898H158.508V32.1735H154.506V29.0925H158.508V24.9112H161.622V29.0925H166.999V32.1735Z" fill="black"/>
<path fill-rule="evenodd" clip-rule="evenodd" d="M14.7841 16.4271C13.909 15.7486 13.1692 14.9206 12.5943 13.9904C11.3615 11.9934 10.8902 9.52566 11.4731 7.06167C12.0561 4.59768 13.5828 2.60255 15.5797 1.36963C17.5765 0.136701 20.0441 -0.334638 22.5079 0.248334C27.4368 1.41428 30.4866 6.35528 29.3214 11.2839C28.1704 16.1511 23.3383 19.1863 18.4714 18.1388L18.7678 22.3703C20.761 21.6298 22.9873 21.4505 25.2117 21.9765C28.2107 22.686 30.6379 24.544 32.1387 26.9739C33.6388 29.4038 34.2124 32.4073 33.503 35.4059C32.7936 38.4051 30.9356 40.8325 28.5059 42.3334C26.0756 43.8336 23.0729 44.4073 20.0745 43.6978C17.0755 42.9883 14.6482 41.1302 13.1475 38.7003C11.6474 36.2705 11.0738 33.2669 11.7832 30.2683C12.332 27.9464 13.5698 25.9673 15.2287 24.4957L14.7841 16.4271ZM14.5614 32.2597C14.5261 32.746 14.5348 33.2322 14.5868 33.7128L30.7167 33.5094C30.7576 33.0232 30.7552 32.537 30.7086 32.0557L14.5614 32.2597ZM15.1183 35.8413C15.2913 36.2723 15.5022 36.6909 15.7502 37.0928C15.7936 37.1629 15.8377 37.2324 15.8829 37.3012L29.5043 37.1486C29.7989 36.6785 30.0463 36.1774 30.2404 35.6503L15.1183 35.8413ZM17.9077 39.4135C18.7592 40.0269 19.7303 40.4734 20.7783 40.7209C22.8787 41.2177 25.0623 40.8642 26.8985 39.7305C27.1131 39.5977 27.3202 39.4563 27.5199 39.3063L17.9077 39.4135ZM30.251 30.0513C30.0643 29.5433 29.8256 29.0509 29.5353 28.5814L29.477 28.489L15.6926 28.6323C15.3992 29.1309 15.1549 29.6698 14.9651 30.2441L30.251 30.0513ZM27.5317 26.3742C26.6442 25.7025 25.6192 25.2163 24.5079 24.9533C21.9219 24.3418 19.4047 24.9701 17.5437 26.4778L27.5317 26.3742ZM26.3447 10.58C26.3869 10.402 26.4204 10.224 26.4458 10.046L14.3754 10.2271C14.4715 10.7772 14.6445 11.3143 14.8907 11.8247L25.9894 11.6585C26.1345 11.3211 26.2548 10.9614 26.3447 10.58ZM26.3788 7.91256C26.2839 7.46479 26.1401 7.03128 25.9503 6.6201L14.781 6.76026C14.6433 7.08276 14.5323 7.4189 14.4498 7.7662C14.4244 7.87411 14.4014 7.98326 14.3822 8.09179L26.3788 7.91256ZM24.3448 4.50527C23.6335 3.90308 22.7733 3.4553 21.8047 3.22584C20.2196 2.85062 18.5731 3.1173 17.1877 3.97316C16.8832 4.16107 16.5986 4.37317 16.3363 4.60636L24.3448 4.50527ZM16.5391 13.9345C18.8621 15.8584 22.2487 15.7101 24.4241 13.8167L16.5391 13.9345ZM5.37032 8.09056C4.61561 7.91194 4.00353 7.4437 3.62587 6.83158C3.2482 6.21946 3.10371 5.46284 3.28231 4.70807C3.46091 3.95269 3.92911 3.34119 4.54057 2.9635C5.15265 2.58519 5.90922 2.4413 6.66393 2.61992C7.41927 2.79853 8.0301 3.26615 8.40839 3.87889C8.78667 4.49101 8.93117 5.24701 8.75257 6.0024C8.57397 6.75778 8.10576 7.36928 7.49368 7.74697C6.88098 8.12467 6.12565 8.26917 5.37032 8.09056ZM35.1674 19.603C34.1151 19.3543 33.263 18.7013 32.7359 17.8485C32.2088 16.9951 32.0078 15.9408 32.2565 14.8878C32.5058 13.8353 33.1576 12.9826 34.0115 12.456C34.8648 11.9289 35.9191 11.7279 36.9714 11.9766C38.0238 12.2259 38.8771 12.8784 39.4036 13.7317C39.9301 14.5851 40.1317 15.6394 39.883 16.6919C39.6337 17.7443 38.9813 18.5971 38.128 19.1242C37.2747 19.6508 36.2204 19.8517 35.1674 19.603ZM4.01593 33.8716C2.96356 33.6229 2.11086 32.9705 1.58374 32.1171C1.05724 31.2637 0.855698 30.2094 1.10499 29.1563C1.35429 28.1039 2.00668 27.2511 2.85937 26.724C3.71269 26.1974 4.76692 25.9959 5.81992 26.2446C6.87292 26.4939 7.72499 27.1463 8.25211 27.9997C8.77861 28.8531 8.98016 29.9074 8.73086 30.9598C8.48157 32.0129 7.8298 32.865 6.97649 33.3922C6.12317 33.9187 5.06893 34.1209 4.01593 33.8716ZM39.5766 39.1338C38.8213 38.9552 38.2099 38.4876 37.8322 37.8749C37.4539 37.2627 37.31 36.5061 37.4886 35.7514C37.6672 34.996 38.1348 34.3845 38.7475 34.0068C39.3596 33.6291 40.1155 33.484 40.8715 33.6626C41.6262 33.8418 42.2377 34.3094 42.616 34.9216C42.9936 35.5337 43.1381 36.2897 42.9595 37.0451C42.7809 37.8004 42.3127 38.4119 41.7006 38.7896C41.0886 39.168 40.3314 39.3118 39.5766 39.1338Z" fill="black"/>
</svg>
