<svg width="49" height="25" viewBox="0 0 49 25" fill="none" xmlns="http://www.w3.org/2000/svg">
<path d="M1.91406 14.5161H42.4499L35.7349 21.5548C34.9857 22.3403 34.9828 23.6168 35.7285 24.4061C36.4743 25.1954 37.6862 25.1983 38.4355 24.4129L48.4368 13.929C48.4375 13.9284 48.438 13.9277 48.4386 13.9271C49.1859 13.1416 49.1883 11.861 48.4388 11.0729C48.4381 11.0723 48.4376 11.0716 48.437 11.071L38.4357 0.58709C37.6865 -0.198193 36.4745 -0.195471 35.7287 0.593945C34.983 1.38316 34.9859 2.65967 35.7351 3.44516L42.4499 10.4839H1.91406C0.856926 10.4839 0 11.3865 0 12.5C0 13.6135 0.856926 14.5161 1.91406 14.5161Z" fill="white"/>
</svg>
